HIERARCHY
ROOT Hips
{
	OFFSET 0.00000 0.00000 0.00000
	CHANNELS 6 Xposition Yposition Zposition Zrotation Yrotation Xrotation 
	JOINT LHipJoint
	{
		OFFSET 0 0 0
		CHANNELS 3 Zrotation Yrotation Xrotation
		JOINT LeftUpLeg
		{
			OFFSET 1.58895 -1.83665 0.71753
			CHANNELS 3 Zrotation Yrotation Xrotation
			JOINT LeftLeg
			{
				OFFSET 2.50528 -6.88321 0.00000
				CHANNELS 3 Zrotation Yrotation Xrotation
				JOINT LeftFoot
				{
					OFFSET 2.63244 -7.23257 0.00000
					CHANNELS 3 Zrotation Yrotation Xrotation
					JOINT LeftToeBase
					{
						OFFSET 0.23691 -0.65090 1.72750
						CHANNELS 3 Zrotation Yrotation Xrotation
						End Site
						{
							OFFSET 0.00000 -0.00000 0.92561
						}
					}
				}
			}
		}
	}
	JOINT RHipJoint
	{
		OFFSET 0 0 0
		CHANNELS 3 Zrotation Yrotation Xrotation
		JOINT RightUpLeg
		{
			OFFSET -1.51435 -1.83665 0.71753
			CHANNELS 3 Zrotation Yrotation Xrotation
			JOINT RightLeg
			{
				OFFSET -2.54551 -6.99375 0.00000
				CHANNELS 3 Zrotation Yrotation Xrotation
				JOINT RightFoot
				{
					OFFSET -2.66027 -7.30903 0.00000
					CHANNELS 3 Zrotation Yrotation Xrotation
					JOINT RightToeBase
					{
						OFFSET -0.22981 -0.63138 2.03959
						CHANNELS 3 Zrotation Yrotation Xrotation
						End Site
						{
							OFFSET -0.00000 -0.00000 1.07060
						}
					}
				}
			}
		}
	}
	JOINT LowerBack
	{
		OFFSET 0 0 0
		CHANNELS 3 Zrotation Yrotation Xrotation
		JOINT Spine
		{
			OFFSET -0.02651 1.86275 -0.11152
			CHANNELS 3 Zrotation Yrotation Xrotation
			JOINT Spine1
			{
				OFFSET 0.01019 1.86224 0.04087
				CHANNELS 3 Zrotation Yrotation Xrotation
				JOINT Neck
				{
					OFFSET 0 0 0
					CHANNELS 3 Zrotation Yrotation Xrotation
					JOINT Neck1
					{
						OFFSET -0.01926 1.80512 0.08867
						CHANNELS 3 Zrotation Yrotation Xrotation
						JOINT Head
						{
							OFFSET 0.05516 1.76451 -0.38475
							CHANNELS 3 Zrotation Yrotation Xrotation
							End Site
							{
								OFFSET 0.01592 1.82587 -0.14001
							}
						}
					}
				}
				JOINT LeftShoulder
				{
					OFFSET 0 0 0
					CHANNELS 3 Zrotation Yrotation Xrotation
					JOINT LeftArm
					{
						OFFSET 3.47116 1.51376 0.14491
						CHANNELS 3 Zrotation Yrotation Xrotation
						JOINT LeftForeArm
						{
							OFFSET 4.78095 -0.00000 0.00000
							CHANNELS 3 Zrotation Yrotation Xrotation
							JOINT LeftHand
							{
								OFFSET 3.58615 -0.00000 -0.00000
								CHANNELS 3 Zrotation Yrotation Xrotation
								JOINT LeftFingerBase
								{
									OFFSET 0 0 0
									CHANNELS 3 Zrotation Yrotation Xrotation
									JOINT LeftHandIndex1
									{
										OFFSET 0.65981 -0.00000 0.00000
										CHANNELS 3 Zrotation Yrotation Xrotation
										End Site
										{
											OFFSET 0.53196 -0.00000 0.00000
										}
									}
								}
								JOINT LThumb
								{
									OFFSET 0 0 0
									CHANNELS 3 Zrotation Yrotation Xrotation
									End Site
									{
										OFFSET 0.54008 -0.00000 0.54008
									}
								}
							}
						}
					}
				}
				JOINT RightShoulder
				{
					OFFSET 0 0 0
					CHANNELS 3 Zrotation Yrotation Xrotation
					JOINT RightArm
					{
						OFFSET -3.31725 1.61216 0.35156
						CHANNELS 3 Zrotation Yrotation Xrotation
						JOINT RightForeArm
						{
							OFFSET -4.48913 -0.00000 0.00000
							CHANNELS 3 Zrotation Yrotation Xrotation
							JOINT RightHand
							{
								OFFSET -3.70510 -0.00000 0.00000
								CHANNELS 3 Zrotation Yrotation Xrotation
								JOINT RightFingerBase
								{
									OFFSET 0 0 0
									CHANNELS 3 Zrotation Yrotation Xrotation
									JOINT RightHandIndex1
									{
										OFFSET -0.44914 -0.00000 0.00000
										CHANNELS 3 Zrotation Yrotation Xrotation
										End Site
										{
											OFFSET -0.36211 -0.00000 0.00000
										}
									}
								}
								JOINT RThumb
								{
									OFFSET 0 0 0
									CHANNELS 3 Zrotation Yrotation Xrotation
									End Site
									{
										OFFSET -0.36763 -0.00000 0.36763
									}
								}
							}
						}
					}
				}
			}
		}
	}
}
MOTION
Frames: 8
Frame Time: .0083333
-0.6813 18.6896 5.9818 0 0 0 0 0 0 -21 0 0 0 0 0 0 0 0 0 0 0 0 0 0 21 0 0 0 0 0 0 0 0 0 0 0 0 0 0 0 0 0 0 0 0 0 0 -16 0 0 21 0 0 11 0 0 0 -8 0 0 0 0 0 0 0 0 0 0 0 0 0 0 0 0 0 0 0 0 8 0 0 0 0 0 0 0 0 0 0 0 0 0 0 0 0 0
-0.6813 18.6896 5.9818 -3.0951 -1.8094 2.6030 0.0000 0.0000 0.0000 -11.7420 -9.6448 -1.9768 1.3724 7.4139 20.9474 1.7686 6.0443 -27.9046 8.2465 -16.2976 -53.4459 0.0000 0.0000 0.0000 0.0000 0.0000 0.0000 0.0000 0.0000 0.0000 -0.0000 -0.0000 0.0000 -0.0000 -0.0000 0.0000 0.2637 0.5982 -0.4479 1.2017 0.8270 -2.7702 1.0702 0.4224 -2.6039 -1.5716 -2.2466 -12.2367 3.5395 -3.7964 25.8002 1.0489 -1.4946 10.3555 -0.0000 -0.0000 0.0000 -90.9511 13.7230 30.5419 21.4534 -32.3538 -6.2908 -0.0000 -0.0000 9.4644 11.2117 -28.6692 -5.4322 -7.1250 0.0000 -0.0000 -11.3494 1.3376 11.3070 -0.0000 -0.0000 0.0000 89.6881 -17.3454 25.3720 -23.2543 34.3657 -7.2813 0.0000 0.0000 23.3153 -8.3078 -29.5746 4.1222 7.1250 -0.0000 -0.0000 25.2560 -57.9774 -8.3699
-0.6811 18.6895 5.9826 -3.0818 -1.8158 2.6131 0.0000 0.0000 0.0000 -11.7620 -9.6587 -1.9729 1.3710 7.4103 20.9367 1.7692 6.0865 -27.9327 8.2571 -16.3051 -53.4834 0.0000 0.0000 0.0000 0.0000 0.0000 0.0000 0.0000 0.0000 0.0000 -0.0000 -0.0000 0.0000 -0.0000 -0.0000 0.0000 0.2506 0.5990 -0.4510 1.1923 0.8279 -2.7901 1.0677 0.4230 -2.6226 -1.5506 -2.2470 -12.2154 3.5237 -3.7981 25.8073 1.0397 -1.4954 10.3532 -0.0000 -0.0000 0.0000 -90.9431 13.7398 30.4737 21.4396 -32.3379 -6.2834 -0.0000 -0.0000 9.6773 11.1901 -28.8830 -5.4583 -7.1250 0.0000 -0.0000 -11.3746 1.1299 11.3759 -0.0000 -0.0000 0.0000 89.6760 -17.3857 25.4306 -23.2914 34.4059 -7.3023 0.0000 0.0000 23.2288 -8.3527 -29.6177 4.1502 7.1250 -0.0000 -0.0000 25.2442 -58.0256 -8.3954
-0.6810 18.6892 5.9830 -3.0833 -1.8011 2.6083 0.0000 0.0000 0.0000 -11.7664 -9.6924 -1.9586 1.3718 7.4123 20.9428 1.7701 6.1318 -27.9641 8.2599 -16.3071 -53.4933 0.0000 0.0000 0.0000 0.0000 0.0000 0.0000 0.0000 0.0000 0.0000 -0.0000 -0.0000 0.0000 -0.0000 -0.0000 0.0000 0.2449 0.5924 -0.4434 1.1943 0.8194 -2.8037 1.0730 0.4190 -2.6410 -1.5674 -2.2509 -12.1997 3.5287 -3.8020 25.8238 1.0441 -1.4983 10.3567 -0.0000 0.0000 0.0000 -90.9653 13.7559 30.3960 21.4324 -32.3297 -6.2796 -0.0000 -0.0000 9.8269 11.1689 -29.0191 -5.4710 -7.1250 0.0000 -0.0000 -11.3951 0.9987 11.4242 -0.0000 0.0000 0.0000 89.6608 -17.4159 25.4747 -23.3102 34.4263 -7.3129 0.0000 0.0000 23.1632 -8.4828 -29.5679 4.2091 7.1250 -0.0000 -0.0000 25.0751 -58.0091 -8.3243
-0.6809 18.6894 5.9836 -3.0785 -1.7832 2.5924 0.0000 0.0000 0.0000 -11.7677 -9.6623 -1.9596 1.3730 7.4155 20.9522 1.7692 6.1135 -27.9481 8.2676 -16.3126 -53.5210 0.0000 0.0000 0.0000 0.0000 0.0000 0.0000 0.0000 0.0000 0.0000 -0.0000 -0.0000 0.0000 -0.0000 -0.0000 0.0000 0.2424 0.5896 -0.4340 1.1897 0.8155 -2.8079 1.0696 0.4171 -2.6504 -1.6007 -2.2635 -12.2049 3.5706 -3.8240 25.8373 1.0619 -1.5065 10.3649 -0.0000 -0.0000 0.0000 -90.9694 13.7710 30.3998 21.4416 -32.3401 -6.2845 -0.0000 -0.0000 9.8049 11.0904 -29.0286 -5.4335 -7.1250 0.0000 -0.0000 -11.4412 0.9997 11.4722 -0.0000 -0.0000 0.0000 89.6603 -17.4242 25.4786 -23.2994 34.4146 -7.3068 0.0000 0.0000 23.1674 -8.5586 -29.5695 4.2474 7.1250 -0.0000 -0.0000 25.0003 -58.0269 -8.3082
-0.6809 18.6896 5.9839 -3.1054 -1.7654 2.5776 0.0000 0.0000 0.0000 -11.7314 -9.6364 -1.9638 1.3748 7.4200 20.9658 1.7709 6.0560 -27.9263 8.2688 -16.3134 -53.5252 0.0000 0.0000 0.0000 0.0000 0.0000 0.0000 0.0000 0.0000 0.0000 -0.0000 -0.0000 0.0000 -0.0000 -0.0000 0.0000 0.2747 0.5819 -0.4198 1.1950 0.8060 -2.8108 1.0569 0.4117 -2.6610 -1.6387 -2.2738 -12.1957 3.6307 -3.8456 25.8214 1.0870 -1.5135 10.3601 0.0000 0.0000 0.0000 -90.9693 13.7753 30.4541 21.4535 -32.3538 -6.2909 -0.0000 -0.0000 9.6884 11.0096 -28.8932 -5.3703 -7.1250 0.0000 -0.0000 -11.4802 1.1437 11.4831 0.0000 0.0000 0.0000 89.6460 -17.4274 25.4968 -23.2799 34.3934 -7.2958 0.0000 0.0000 23.2041 -8.5821 -29.6276 4.2668 7.1250 -0.0000 -0.0000 25.0213 -58.0840 -8.3507
-0.6808 18.6895 5.9834 -3.1424 -1.7427 2.5625 0.0000 0.0000 0.0000 -11.6853 -9.6230 -1.9667 1.3765 7.4245 20.9794 1.7702 6.0198 -27.9012 8.2683 -16.3131 -53.5232 0.0000 0.0000 0.0000 0.0000 0.0000 0.0000 0.0000 0.0000 0.0000 -0.0000 -0.0000 0.0000 -0.0000 -0.0000 0.0000 0.3042 0.5737 -0.4277 1.2117 0.7954 -2.7972 1.0579 0.4059 -2.6421 -1.6875 -2.2850 -12.1834 3.6849 -3.8635 25.7892 1.1122 -1.5208 10.3487 -0.0000 0.0000 0.0000 -90.9919 13.7514 30.4697 21.4546 -32.3551 -6.2915 -0.0000 -0.0000 9.6499 11.0350 -28.8300 -5.3722 -7.1250 0.0000 -0.0000 -11.4617 1.2025 11.4517 -0.0000 0.0000 0.0000 89.6120 -17.4381 25.5076 -23.2841 34.3980 -7.2982 0.0000 0.0000 23.2710 -8.5960 -29.7339 4.2877 7.1250 -0.0000 -0.0000 25.0898 -58.1825 -8.4359
-0.6803 18.6899 5.9829 -3.1402 -1.7188 2.5514 0.0000 0.0000 0.0000 -11.6880 -9.6362 -1.9623 1.3773 7.4266 20.9856 1.7667 6.0483 -27.8940 8.2712 -16.3151 -53.5336 0.0000 0.0000 0.0000 0.0000 0.0000 0.0000 0.0000 0.0000 0.0000 -0.0000 -0.0000 0.0000 -0.0000 -0.0000 0.0000 0.2922 0.5768 -0.4630 1.2190 0.7989 -2.7704 1.0726 0.4079 -2.5950 -1.7175 -2.3075 -12.2145 3.7052 -3.8938 25.7928 1.1204 -1.5348 10.3582 0.0000 -0.0000 0.0000 -90.9990 13.7287 30.4702 21.4643 -32.3663 -6.2967 -0.0000 -0.0000 9.7599 11.0686 -29.0033 -5.4183 -7.1250 0.0000 -0.0000 -11.4524 1.0275 11.4782 0.0000 -0.0000 0.0000 89.5908 -17.4293 25.4802 -23.2907 34.4051 -7.3019 0.0000 0.0000 23.3137 -8.6513 -29.7523 4.3180 7.1250 -0.0000 -0.0000 25.0485 -58.2111 -8.4383
